<svg width="16" height="17" viewBox="0 0 16 17" fill="none" xmlns="http://www.w3.org/2000/svg">
<path d="M0 3.5C0 1.843 1.343 0.5 3 0.5H13C14.657 0.5 16 1.843 16 3.5V13.5C16 15.157 14.657 16.5 13 16.5H3C1.343 16.5 0 15.157 0 13.5V3.5ZM4.85 13.893V6.669H2.434V13.893H4.85ZM3.642 5.682C4.484 5.682 5.009 5.128 5.009 4.434C4.993 3.725 4.484 3.186 3.658 3.186C2.831 3.186 2.291 3.725 2.291 4.434C2.291 5.128 2.815 5.682 3.626 5.682H3.642ZM8.604 13.893V9.859C8.604 9.643 8.62 9.428 8.683 9.273C8.858 8.842 9.256 8.395 9.923 8.395C10.798 8.395 11.148 9.057 11.148 10.029V13.893H13.564V9.751C13.564 7.532 12.372 6.499 10.782 6.499C9.5 6.499 8.925 7.199 8.604 7.692V6.669H6.187C6.219 7.344 6.188 13.852 6.187 13.894L8.604 13.893Z" fill="white" fill-opacity="0.5"/>
</svg>
